#!OML:ASF E:\inclinewalkrobotboard\Project 1\Capture day 1\Session 1\subject1.ASF
:FULLY-SPECIFIED
:DEGREES
397
root 9.18844 16.9962 18.0754 11.903 -0.825534 1.94223
lowerback -1.60911 -2.49279 -9.6987
upperback 4.90543 -2.99862 2.24465
thorax 6.75121 -2.0569 7.61073
lowerneck -5.83978 1.57225 -0.559598
upperneck 23.8643 1.52818 2.9561
head 8.31353 0.928655 1.2139
rclavicle 3.72721e-016 -1.40143e-014
rhumerus -59.5069 -37.0594 -46.8154
rradius 18.2327
rwrist 33.541
rhand -13.978 -37.8529
rfingers 7.12502
rthumb 12.1503 -67.4801
lclavicle 3.72721e-016 -1.40143e-014
lhumerus -12.6135 -18.7189 92.3626
lradius 26.7622
lwrist -16.2441
lhand -26.324 -20.1427
lfingers 7.12502
lthumb 0.232784 9.83695
rfemur -35.0793 5.23235 4.56658
rtibia 17.3414
rfoot -3.15679 -10.8923
rtoes -31.4892
lfemur -7.48268 -7.68545 -20.2827
ltibia 20.8526
lfoot -26.229 13.4649
ltoes -69.998
398
root 9.09824 16.9611 18.3204 11.7343 0.234224 2.56319
lowerback -0.785144 -2.85629 -9.583
upperback 4.34088 -3.58975 2.27156
thorax 5.78156 -2.27423 7.56662
lowerneck -5.49791 1.48599 -0.641875
upperneck 24.57 1.41043 2.92278
head 8.49297 0.861944 1.21246
rclavicle 1.14301e-015 1.13307e-014
rhumerus -61.3877 -36.3719 -45.7832
rradius 18.2506
rwrist 33.7172
rhand -13.7412 -37.7205
rfingers 7.12502
rthumb 12.3786 -67.334
lclavicle 1.14301e-015 1.13307e-014
lhumerus -13.9813 -18.9936 92.8674
lradius 27.0688
lwrist -16.5587
lhand -25.9406 -20.3762
lfingers 7.12502
lthumb 0.603082 9.60265
rfemur -34.743 4.97147 3.80604
rtibia 16.5859
rfoot -2.96291 -11.6266
rtoes -30.6342
lfemur -6.3347 -8.19008 -20.6017
ltibia 20.7145
lfoot -26.1896 13.4293
ltoes -70.4742
399
root 9.01045 16.918 18.5619 11.7394 0.96342 3.2089
lowerback -0.74386 -3.15249 -9.53725
upperback 4.23013 -3.99804 2.33222
thorax 5.72536 -2.46954 7.57641
lowerneck -6.05767 1.24209 -1.98375
upperneck 25.2785 0.912507 4.37705
head 8.82835 0.653761 1.90829
rclavicle 1.21259e-014 4.37326e-015
rhumerus -62.6197 -36.6794 -44.4947
rradius 17.9342
rwrist 34.8448
rhand -13.4885 -37.5917
rfingers 7.12502
rthumb 12.6222 -67.1904
lclavicle 1.21259e-014 4.37326e-015
lhumerus -14.3961 -19.3598 93.1695
lradius 27.1518
lwrist -16.8371
lhand -25.7643 -20.7055
lfingers 7.12502
lthumb 0.773381 9.27286
rfemur -34.9953 4.45951 3.2138
rtibia 16.7057
rfoot -2.78063 -11.7267
rtoes -29.6282
lfemur -5.325 -8.63891 -21.0315
ltibia 20.5074
lfoot -26.1671 13.5538
ltoes -70.8891
400
root 8.91425 16.8756 18.7993 11.7714 1.60595 3.68497
lowerback -0.621271 -3.35231 -9.29872
upperback 4.11946 -4.29247 2.4304
thorax 5.58418 -2.59716 7.53135
lowerneck -5.99982 1.15726 -1.79389
upperneck 25.4209 0.905002 3.77759
head 8.87425 0.609186 1.67284
rclavicle 2.37548e-014 -9.14409e-015
rhumerus -64.0739 -37.262 -42.7366
rradius 17.4776
rwrist 36.5045
rhand -13.6494 -37.1476
rfingers 7.12502
rthumb 12.4671 -66.7557
lclavicle 2.37548e-014 -9.14409e-015
lhumerus -14.7378 -19.8495 93.4948
lradius 27.0611
lwrist -17.1003
lhand -26.1446 -20.8947
lfingers 7.12502
lthumb 0.406067 9.08467
rfemur -35.4726 4.25067 2.86037
rtibia 17.4545
rfoot -2.94599 -11.8258
rtoes -28.4082
lfemur -4.41578 -9.0471 -21.1956
ltibia 20.3905
lfoot -26.0214 13.8699
ltoes -71.3118
401
root 8.8092 16.835 19.0442 11.8913 2.28659 4.1371
lowerback -0.640482 -3.55432 -8.99904
upperback 4.0562 -4.57626 2.52155
thorax 5.56534 -2.72439 7.43561
lowerneck -6.0558 1.07546 -1.84512
upperneck 25.5069 0.848946 3.56846
head 8.91791 0.559107 1.60741
rclavicle 1.2921e-014 -6.75868e-015
rhumerus -65.5587 -38.0467 -40.7593
rradius 16.9884
rwrist 38.3768
rhand -13.7573 -36.767
rfingers 7.12502
rthumb 12.3631 -66.3815
lclavicle 1.2921e-014 -6.75868e-015
lhumerus -15.0495 -20.0793 93.6947
lradius 27.0536
lwrist -17.3822
lhand -26.1803 -20.9214
lfingers 7.12502
lthumb 0.371609 9.05806
rfemur -35.857 4.27211 2.5588
rtibia 18.2464
rfoot -3.31393 -12.0591
rtoes -25.6306
lfemur -3.59056 -9.33148 -21.2342
ltibia 20.2901
lfoot -26.1849 13.2718
ltoes -71.2598
402
root 8.69768 16.7902 19.3019 12.1633 3.17032 4.67465
lowerback -0.903153 -3.86504 -8.73181
upperback 3.98012 -4.98612 2.64719
thorax 5.70271 -2.92294 7.36825
lowerneck -6.14681 1.05229 -2.04091
upperneck 25.563 0.885644 3.41496
head 8.9533 0.544558 1.59398
rclavicle 5.00937e-014 -1.55052e-014
rhumerus -66.739 -38.5076 -39.1911
rradius 16.6499
rwrist 39.8256
rhand -13.6881 -36.4316
rfingers 7.12502
rthumb 12.4298 -66.042
lclavicle 5.00937e-014 -1.55052e-014
lhumerus -15.4447 -19.995 93.8106
lradius 27.226
lwrist -17.5961
lhand -25.8179 -21.1289
lfingers 7.12502
lthumb 0.721635 8.84965
rfemur -36.0081 3.99688 2.34682
rtibia 18.9037
rfoot -3.37897 -12.1221
rtoes -22.8766
lfemur -2.9148 -9.67935 -21.2637
ltibia 20.2274
lfoot -26.3477 12.5394
ltoes -71.2566
403
root 8.58294 16.7396 19.5644 12.5192 4.28271 5.26616
lowerback -1.17166 -4.21562 -8.35575
upperback 3.82897 -5.45616 2.77693
thorax 5.76114 -3.13999 7.23677
lowerneck -6.13352 1.0378 -2.0872
upperneck 25.5603 0.985249 2.96132
head 8.95074 0.543092 1.45634
rclavicle 2.96189e-014 -4.77083e-015
rhumerus -68.143 -38.9542 -37.3075
rradius 16.2869
rwrist 41.415
rhand -13.6163 -35.9779
rfingers 7.12502
rthumb 12.4991 -65.584
lclavicle 2.96189e-014 -4.77083e-015
lhumerus -15.9896 -19.958 93.942
lradius 27.5531
lwrist -17.6925
lhand -25.6428 -21.4468
lfingers 7.12502
lthumb 0.89072 8.53113
rfemur -36.1694 3.23015 2.33571
rtibia 20.0337
rfoot -2.12459 -12.3685
rtoes -30.6631
lfemur -2.48603 -10.2393 -21.2776
ltibia 20.4892
lfoot -26.5155 11.77
ltoes -71.3025
404
root 8.46577 16.6925 19.8169 12.9674 5.35751 6.15084
lowerback -1.26912 -4.47993 -8.17949
upperback 3.58526 -5.81484 2.81864
thorax 5.61032 -3.29597 7.14893
lowerneck -5.96625 0.969809 -2.19942
upperneck 25.4384 0.999752 2.59279
head 8.87945 0.50475 1.34854
rclavicle 5.32743e-014 -1.03368e-014
rhumerus -69.579 -39.2538 -35.4977
rradius 15.9395
rwrist 42.6771
rhand -13.4243 -35.9435
rfingers 7.12502
rthumb 12.6841 -65.5383
lclavicle 5.32743e-014 -1.03368e-014
lhumerus -16.4927 -19.898 94.1693
lradius 27.7577
lwrist -17.9121
lhand -25.6134 -21.6304
lfingers 7.12502
lthumb 0.919172 8.34732
rfemur -36.9069 2.3951 2.03907
rtibia 23.3057
rfoot -3.41246 -12.6317
rtoes -29.3107
lfemur -2.43451 -10.9791 -21.6349
ltibia 21.2218
lfoot -26.4429 11.0336
ltoes -71.3477
405
root 8.34713 16.6629 20.0461 13.4075 6.02139 7.09189
lowerback -0.99742 -4.58311 -8.2008
upperback 3.26884 -5.98016 2.86868
thorax 5.15751 -3.35069 7.2337
lowerneck -5.66157 0.900989 -2.50331
upperneck 25.2604 0.996208 2.39563
head 8.76122 0.457585 1.32886
rclavicle -3.06128e-014 1.59028e-015
rhumerus -70.44 -39.2023 -34.2918
rradius 15.5628
rwrist 43.4321
rhand -13.1172 -36.1847
rfingers 7.12502
rthumb 12.9802 -65.7609
lclavicle -3.06128e-014 1.59028e-015
lhumerus -16.8565 -19.5341 94.4812
lradius 27.6161
lwrist -18.3039
lhand -25.8001 -21.6
lfingers 7.12502
lthumb 0.738802 8.3785
rfemur -38.3988 2.16888 1.5687
rtibia 27.6279
rfoot -4.90775 -12.4732
rtoes -38.2653
lfemur -2.65146 -11.5684 -22.1071
ltibia 22.2797
lfoot -26.0456 10.3493
ltoes -71.3878
406
root 8.22701 16.655 20.2594 13.5027 6.25508 7.3574
lowerback -0.339768 -4.49572 -7.77038
upperback 3.09475 -5.93214 3.06703
thorax 4.56218 -3.28697 7.26829
lowerneck -5.32715 0.900953 -2.54495
upperneck 24.9972 1.1004 1.96751
head 8.60971 0.463414 1.19474
rclavicle 1.70955e-014 3.18055e-015
rhumerus -71.5668 -39.8793 -31.8137
rradius 14.865
rwrist 45.8381
rhand -12.5285 -36.3196
rfingers 7.12502
rthumb 13.5476 -65.8589
lclavicle 1.70955e-014 3.18055e-015
lhumerus -17.1726 -18.8979 94.6755
lradius 27.4011
lwrist -18.7408
lhand -26.3939 -21.6345
lfingers 7.12502
lthumb 0.165311 8.34518
rfemur -39.0352 2.68982 1.81837
rtibia 30.2137
rfoot -7.50899 -12.874
rtoes -32.2684
lfemur -2.74848 -11.7149 -21.8368
ltibia 23.4862
lfoot -25.4007 9.65921
ltoes -71.485
407
root 8.12068 16.6642 20.4949 13.46 6.42091 7.0454
lowerback -0.147377 -4.40965 -6.68626
upperback 3.16812 -5.85967 3.35019
thorax 4.42654 -3.21747 6.97599
lowerneck -5.03793 0.986612 -2.45306
upperneck 24.6064 1.30683 1.52163
head 8.42276 0.529745 1.04038
rclavicle -7.79236e-014 2.14687e-014
rhumerus -72.8391 -41.139 -28.5699
rradius 14.2556
rwrist 49.524
rhand -11.8091 -36.5204
rfingers 7.12502
rthumb 14.2409 -66.0121
lclavicle -7.79236e-014 2.14687e-014
lhumerus -17.5347 -18.2049 94.6979
lradius 27.3466
lwrist -18.9331
lhand -27.2052 -21.8556
lfingers 7.12502
lthumb -0.618324 8.12323
rfemur -38.8838 3.2417 2.84885
rtibia 31.7135
rfoot -9.1235 -12.77
rtoes -31.8888
lfemur -2.5761 -11.8092 -21.0737
ltibia 24.5233
lfoot -24.5083 8.92812
ltoes -71.6512
